<svg width="754" height="620" viewBox="0 0 754 620" fill="none" xmlns="http://www.w3.org/2000/svg">
<mask id="path-1-outside-1_4_84" maskUnits="userSpaceOnUse" x="131.113" y="518.65" width="318" height="24" fill="black">
<rect fill="white" x="131.113" y="518.65" width="318" height="24"/>
<path fill-rule="evenodd" clip-rule="evenodd" d="M246.124 540.98H247.177V540.011C246.829 540.335 246.478 540.657 246.124 540.98ZM260.291 526.437H263.867V540.98H271.947V526.437H284.713V520.296H265.245C263.71 522.324 262.056 524.374 260.291 526.437ZM180.887 520.17C176.636 524.35 172.797 528.553 169.426 532.689C169.312 532.04 169.255 531.356 169.255 530.638C169.255 528.225 169.901 526.21 171.194 524.594C172.508 522.957 174.598 521.729 177.464 520.91C178.488 520.61 179.629 520.363 180.887 520.17ZM140.193 535.647V540.98H132.113V520.296H154.542C156.158 520.296 157.667 520.415 159.067 520.652C160.489 520.867 161.728 521.266 162.784 521.847C163.839 522.429 164.669 523.248 165.272 524.304C165.875 525.359 166.177 526.717 166.177 528.376C166.177 530.035 165.875 531.349 165.272 532.319C164.669 533.288 163.839 534.01 162.784 534.484C161.728 534.958 160.489 535.27 159.067 535.421C157.667 535.572 156.158 535.647 154.542 535.647H140.193ZM140.193 529.992H155.803C156.449 529.992 156.988 529.895 157.419 529.701C157.871 529.485 158.097 529.044 158.097 528.376C158.097 527.686 157.871 527.245 157.419 527.051C156.988 526.857 156.449 526.76 155.803 526.76H140.193V529.992ZM320.509 526.437V520.296H287.932V540.98H296.012V534.678H316.049V529.184H296.012V526.437H320.509ZM330.977 540.398C333.843 541.217 337.624 541.626 342.321 541.626C347.018 541.626 350.799 541.217 353.665 540.398C356.53 539.558 358.609 538.33 359.902 536.714C361.216 535.076 361.874 533.051 361.874 530.638C361.874 528.225 361.216 526.21 359.902 524.594C358.609 522.957 356.53 521.729 353.665 520.91C350.799 520.07 347.018 519.65 342.321 519.65C337.624 519.65 333.843 520.07 330.977 520.91C328.111 521.729 326.021 522.957 324.707 524.594C323.414 526.21 322.768 528.225 322.768 530.638C322.768 533.051 323.414 535.076 324.707 536.714C326.021 538.33 328.111 539.558 330.977 540.398ZM348.074 535.098C346.458 535.357 344.54 535.486 342.321 535.486C340.102 535.486 338.152 535.357 336.471 535.098C334.812 534.818 333.509 534.333 332.561 533.644C331.634 532.933 331.171 531.931 331.171 530.638C331.171 529.345 331.634 528.354 332.561 527.665C333.509 526.954 334.812 526.469 336.471 526.21C338.152 525.93 340.102 525.79 342.321 525.79C344.54 525.79 346.458 525.93 348.074 526.21C349.689 526.469 350.939 526.954 351.822 527.665C352.706 528.354 353.148 529.345 353.148 530.638C353.148 531.931 352.706 532.933 351.822 533.644C350.939 534.333 349.689 534.818 348.074 535.098ZM374.157 534.839V520.296H366.077V540.98H392.999V534.839H374.157ZM405.13 520.296H397.05V540.98H405.13V520.296ZM418.023 540.398C420.888 541.217 424.669 541.626 429.366 541.626C434.063 541.626 437.845 541.217 440.71 540.398C443.576 539.558 445.655 538.33 446.948 536.714C448.262 535.076 448.919 533.051 448.919 530.638C448.919 528.225 448.262 526.21 446.948 524.594C445.655 522.957 443.576 521.729 440.71 520.91C437.845 520.07 434.063 519.65 429.366 519.65C424.669 519.65 420.888 520.07 418.023 520.91C415.157 521.729 413.067 522.957 411.753 524.594C410.46 526.21 409.814 528.225 409.814 530.638C409.814 533.051 410.46 535.076 411.753 536.714C413.067 538.33 415.157 539.558 418.023 540.398ZM435.119 535.098C433.503 535.357 431.586 535.486 429.366 535.486C427.147 535.486 425.197 535.357 423.517 535.098C421.858 534.818 420.554 534.333 419.606 533.644C418.68 532.933 418.216 531.931 418.216 530.638C418.216 529.345 418.68 528.354 419.606 527.665C420.554 526.954 421.858 526.469 423.517 526.21C425.197 525.93 427.147 525.79 429.366 525.79C431.586 525.79 433.503 525.93 435.119 526.21C436.735 526.469 437.985 526.954 438.868 527.665C439.751 528.354 440.193 529.345 440.193 530.638C440.193 531.931 439.751 532.933 438.868 533.644C437.985 534.333 436.735 534.818 435.119 535.098Z"/>
</mask>
<path d="M247.177 540.98V541.163H247.36V540.98H247.177ZM246.124 540.98L246.001 540.845L245.653 541.163H246.124V540.98ZM247.177 540.011H247.36V539.593L247.053 539.877L247.177 540.011ZM263.867 526.437H264.05V526.254H263.867V526.437ZM260.291 526.437L260.152 526.318L259.893 526.619H260.291V526.437ZM263.867 540.98H263.685V541.163H263.867V540.98ZM271.947 540.98V541.163H272.13V540.98H271.947ZM271.947 526.437V526.254H271.764V526.437H271.947ZM284.713 526.437V526.619H284.896V526.437H284.713ZM284.713 520.296H284.896V520.113H284.713V520.296ZM265.245 520.296V520.113H265.154L265.099 520.186L265.245 520.296ZM169.426 532.689L169.246 532.721L169.316 533.114L169.568 532.805L169.426 532.689ZM180.887 520.17L181.015 520.301L181.419 519.904L180.859 519.989L180.887 520.17ZM171.194 524.594L171.051 524.48L171.051 524.48L171.194 524.594ZM177.464 520.91L177.514 521.086L177.515 521.086L177.464 520.91ZM140.193 535.647V535.465H140.01V535.647H140.193ZM140.193 540.98V541.163H140.376V540.98H140.193ZM132.113 540.98H131.93V541.163H132.113V540.98ZM132.113 520.296V520.113H131.93V520.296H132.113ZM159.067 520.652L159.036 520.832L159.04 520.832L159.067 520.652ZM162.784 521.847L162.872 521.687L162.784 521.847ZM165.272 524.304L165.113 524.394V524.394L165.272 524.304ZM165.272 532.319L165.117 532.222H165.117L165.272 532.319ZM162.784 534.484L162.859 534.651L162.784 534.484ZM159.067 535.421L159.048 535.239L159.047 535.239L159.067 535.421ZM140.193 529.992H140.01V530.174H140.193V529.992ZM157.419 529.701L157.494 529.868L157.497 529.866L157.419 529.701ZM157.419 527.051L157.344 527.217L157.347 527.219L157.419 527.051ZM140.193 526.76V526.577H140.01V526.76H140.193ZM320.509 520.296H320.692V520.113H320.509V520.296ZM320.509 526.437V526.619H320.692V526.437H320.509ZM287.932 520.296V520.113H287.749V520.296H287.932ZM287.932 540.98H287.749V541.163H287.932V540.98ZM296.012 540.98V541.163H296.195V540.98H296.012ZM296.012 534.678V534.495H295.829V534.678H296.012ZM316.049 534.678V534.861H316.232V534.678H316.049ZM316.049 529.184H316.232V529.001H316.049V529.184ZM296.012 529.184H295.829V529.366H296.012V529.184ZM296.012 526.437V526.254H295.829V526.437H296.012ZM330.977 540.398L330.926 540.574L330.927 540.574L330.977 540.398ZM353.665 540.398L353.715 540.574L353.716 540.574L353.665 540.398ZM359.902 536.714L359.76 536.6L359.759 536.6L359.902 536.714ZM359.902 524.594L359.759 524.708L359.76 524.71L359.902 524.594ZM353.665 520.91L353.613 521.086L353.614 521.086L353.665 520.91ZM330.977 520.91L331.027 521.086L331.028 521.086L330.977 520.91ZM324.707 524.594L324.565 524.48L324.564 524.48L324.707 524.594ZM324.707 536.714L324.564 536.827L324.565 536.829L324.707 536.714ZM348.074 535.098L348.102 535.279L348.105 535.278L348.074 535.098ZM336.471 535.098L336.441 535.278L336.443 535.279L336.471 535.098ZM332.561 533.644L332.449 533.789L332.453 533.792L332.561 533.644ZM332.561 527.665L332.67 527.811L332.67 527.811L332.561 527.665ZM336.471 526.21L336.499 526.391L336.501 526.391L336.471 526.21ZM348.074 526.21L348.042 526.391L348.045 526.391L348.074 526.21ZM351.822 527.665L351.708 527.807L351.71 527.809L351.822 527.665ZM351.822 533.644L351.935 533.788L351.937 533.786L351.822 533.644ZM374.157 520.296H374.34V520.113H374.157V520.296ZM374.157 534.839H373.974V535.022H374.157V534.839ZM366.077 520.296V520.113H365.895V520.296H366.077ZM366.077 540.98H365.895V541.163H366.077V540.98ZM392.999 540.98V541.163H393.182V540.98H392.999ZM392.999 534.839H393.182V534.657H392.999V534.839ZM397.05 520.296V520.113H396.868V520.296H397.05ZM405.13 520.296H405.313V520.113H405.13V520.296ZM397.05 540.98H396.868V541.163H397.05V540.98ZM405.13 540.98V541.163H405.313V540.98H405.13ZM418.023 540.398L417.971 540.574L417.972 540.574L418.023 540.398ZM440.71 540.398L440.76 540.574L440.762 540.574L440.71 540.398ZM446.948 536.714L446.805 536.6L446.805 536.6L446.948 536.714ZM446.948 524.594L446.804 524.708L446.806 524.71L446.948 524.594ZM440.71 520.91L440.659 521.086L440.66 521.086L440.71 520.91ZM418.023 520.91L418.073 521.086L418.074 521.086L418.023 520.91ZM411.753 524.594L411.61 524.48L411.61 524.48L411.753 524.594ZM411.753 536.714L411.609 536.827L411.611 536.829L411.753 536.714ZM435.119 535.098L435.148 535.279L435.15 535.278L435.119 535.098ZM423.517 535.098L423.486 535.278L423.489 535.279L423.517 535.098ZM419.606 533.644L419.495 533.789L419.499 533.792L419.606 533.644ZM419.606 527.665L419.715 527.811L419.716 527.811L419.606 527.665ZM423.517 526.21L423.545 526.391L423.547 526.391L423.517 526.21ZM435.119 526.21L435.088 526.391L435.09 526.391L435.119 526.21ZM438.868 527.665L438.753 527.807L438.756 527.809L438.868 527.665ZM438.868 533.644L438.981 533.788L438.983 533.786L438.868 533.644ZM247.177 540.797H246.124V541.163H247.177V540.797ZM246.995 540.011V540.98H247.36V540.011H246.995ZM247.053 539.877C246.705 540.2 246.354 540.523 246.001 540.845L246.247 541.115C246.601 540.792 246.953 540.469 247.302 540.145L247.053 539.877ZM263.867 526.254H260.291V526.619H263.867V526.254ZM264.05 540.98V526.437H263.685V540.98H264.05ZM271.947 540.797H263.867V541.163H271.947V540.797ZM271.764 526.437V540.98H272.13V526.437H271.764ZM284.713 526.254H271.947V526.619H284.713V526.254ZM284.53 520.296V526.437H284.896V520.296H284.53ZM265.245 520.479H284.713V520.113H265.245V520.479ZM265.099 520.186C263.567 522.21 261.915 524.258 260.152 526.318L260.429 526.556C262.197 524.491 263.853 522.437 265.39 520.406L265.099 520.186ZM169.568 532.805C172.934 528.674 176.768 524.476 181.015 520.301L180.759 520.04C176.503 524.224 172.66 528.432 169.285 532.574L169.568 532.805ZM169.606 532.658C169.494 532.02 169.437 531.346 169.437 530.638H169.072C169.072 531.366 169.13 532.06 169.246 532.721L169.606 532.658ZM169.437 530.638C169.437 528.259 170.074 526.287 171.337 524.709L171.051 524.48C169.728 526.134 169.072 528.191 169.072 530.638H169.437ZM171.336 524.709C172.619 523.111 174.67 521.898 177.514 521.086L177.413 520.734C174.526 521.559 172.397 522.803 171.051 524.48L171.336 524.709ZM177.515 521.086C178.53 520.788 179.663 520.543 180.915 520.351L180.859 519.989C179.595 520.183 178.445 520.432 177.412 520.735L177.515 521.086ZM140.01 535.647V540.98H140.376V535.647H140.01ZM140.193 540.797H132.113V541.163H140.193V540.797ZM132.296 540.98V520.296H131.93V540.98H132.296ZM132.113 520.479H154.542V520.113H132.113V520.479ZM154.542 520.479C156.149 520.479 157.647 520.597 159.036 520.832L159.097 520.471C157.686 520.232 156.167 520.113 154.542 520.113V520.479ZM159.04 520.832C160.444 521.045 161.662 521.438 162.695 522.007L162.872 521.687C161.794 521.093 160.534 520.689 159.094 520.471L159.04 520.832ZM162.695 522.007C163.721 522.573 164.527 523.367 165.113 524.394L165.431 524.213C164.811 523.128 163.957 522.285 162.872 521.687L162.695 522.007ZM165.113 524.394C165.696 525.414 165.994 526.737 165.994 528.376H166.36C166.36 526.696 166.055 525.305 165.431 524.213L165.113 524.394ZM165.994 528.376C165.994 530.015 165.696 531.292 165.117 532.222L165.427 532.415C166.055 531.406 166.36 530.054 166.36 528.376H165.994ZM165.117 532.222C164.533 533.16 163.732 533.858 162.709 534.317L162.859 534.651C163.947 534.162 164.805 533.416 165.427 532.415L165.117 532.222ZM162.709 534.317C161.674 534.782 160.455 535.09 159.048 535.239L159.086 535.603C160.523 535.451 161.782 535.134 162.859 534.651L162.709 534.317ZM159.047 535.239C157.654 535.389 156.153 535.465 154.542 535.465V535.83C156.164 535.83 157.679 535.755 159.087 535.603L159.047 535.239ZM154.542 535.465H140.193V535.83H154.542V535.465ZM140.193 530.174H155.803V529.809H140.193V530.174ZM155.803 530.174C156.466 530.174 157.032 530.075 157.494 529.867L157.344 529.534C156.943 529.714 156.432 529.809 155.803 529.809V530.174ZM157.497 529.866C158.035 529.61 158.28 529.086 158.28 528.376H157.915C157.915 529.001 157.707 529.361 157.34 529.536L157.497 529.866ZM158.28 528.376C158.28 527.648 158.037 527.117 157.491 526.883L157.347 527.219C157.705 527.372 157.915 527.725 157.915 528.376H158.28ZM157.494 526.884C157.032 526.676 156.466 526.577 155.803 526.577V526.943C156.432 526.943 156.943 527.037 157.344 527.217L157.494 526.884ZM155.803 526.577H140.193V526.943H155.803V526.577ZM140.01 526.76V529.992H140.376V526.76H140.01ZM320.326 520.296V526.437H320.692V520.296H320.326ZM287.932 520.479H320.509V520.113H287.932V520.479ZM288.115 540.98V520.296H287.749V540.98H288.115ZM296.012 540.797H287.932V541.163H296.012V540.797ZM295.829 534.678V540.98H296.195V534.678H295.829ZM316.049 534.495H296.012V534.861H316.049V534.495ZM315.866 529.184V534.678H316.232V529.184H315.866ZM296.012 529.366H316.049V529.001H296.012V529.366ZM295.829 526.437V529.184H296.195V526.437H295.829ZM320.509 526.254H296.012V526.619H320.509V526.254ZM342.321 541.444C337.632 541.444 333.87 541.035 331.027 540.223L330.927 540.574C333.815 541.399 337.615 541.809 342.321 541.809V541.444ZM353.614 540.223C350.772 541.035 347.009 541.444 342.321 541.444V541.809C347.026 541.809 350.826 541.399 353.715 540.574L353.614 540.223ZM359.759 536.6C358.498 538.176 356.458 539.389 353.613 540.223L353.716 540.574C356.602 539.727 358.72 538.484 360.045 536.828L359.759 536.6ZM361.691 530.638C361.691 533.016 361.044 534.999 359.76 536.6L360.045 536.828C361.389 535.154 362.056 533.086 362.056 530.638H361.691ZM359.76 524.71C361.044 526.288 361.691 528.26 361.691 530.638H362.056C362.056 528.19 361.389 526.133 360.044 524.479L359.76 524.71ZM353.614 521.086C356.458 521.898 358.498 523.111 359.759 524.708L360.046 524.481C358.721 522.803 356.602 521.559 353.715 520.734L353.614 521.086ZM342.321 519.833C347.009 519.833 350.771 520.252 353.613 521.086L353.716 520.735C350.827 519.888 347.026 519.467 342.321 519.467V519.833ZM331.028 521.086C333.871 520.252 337.632 519.833 342.321 519.833V519.467C337.615 519.467 333.815 519.888 330.926 520.735L331.028 521.086ZM324.85 524.709C326.132 523.111 328.183 521.898 331.027 521.086L330.927 520.734C328.039 521.559 325.911 522.803 324.565 524.48L324.85 524.709ZM322.951 530.638C322.951 528.259 323.587 526.287 324.85 524.709L324.564 524.48C323.242 526.134 322.585 528.191 322.585 530.638H322.951ZM324.851 536.601C323.587 535 322.951 533.017 322.951 530.638H322.585C322.585 533.086 323.242 535.153 324.564 536.827L324.851 536.601ZM331.028 540.223C328.184 539.389 326.132 538.176 324.849 536.599L324.565 536.829C325.911 538.484 328.039 539.727 330.926 540.574L331.028 540.223ZM342.321 535.669C344.547 535.669 346.474 535.539 348.102 535.279L348.045 534.918C346.441 535.174 344.533 535.303 342.321 535.303V535.669ZM336.443 535.279C338.135 535.539 340.095 535.669 342.321 535.669V535.303C340.108 535.303 338.168 535.174 336.499 534.917L336.443 535.279ZM332.453 533.792C333.432 534.503 334.765 534.995 336.441 535.278L336.502 534.918C334.859 534.64 333.586 534.163 332.668 533.496L332.453 533.792ZM330.988 530.638C330.988 531.981 331.472 533.039 332.449 533.789L332.672 533.499C331.796 532.826 331.354 531.881 331.354 530.638H330.988ZM332.451 527.518C331.473 528.247 330.988 529.295 330.988 530.638H331.354C331.354 529.395 331.796 528.462 332.67 527.811L332.451 527.518ZM336.443 526.03C334.766 526.291 333.431 526.784 332.451 527.519L332.67 527.811C333.586 527.124 334.858 526.647 336.499 526.391L336.443 526.03ZM342.321 525.607C340.094 525.607 338.134 525.748 336.441 526.03L336.501 526.391C338.169 526.113 340.109 525.973 342.321 525.973V525.607ZM348.105 526.03C346.476 525.748 344.547 525.607 342.321 525.607V525.973C344.533 525.973 346.44 526.113 348.042 526.39L348.105 526.03ZM351.937 527.522C351.02 526.784 349.737 526.291 348.102 526.03L348.045 526.391C349.642 526.647 350.858 527.123 351.708 527.807L351.937 527.522ZM353.33 530.638C353.33 529.299 352.87 528.25 351.935 527.521L351.71 527.809C352.542 528.458 352.965 529.392 352.965 530.638H353.33ZM351.937 533.786C352.87 533.035 353.33 531.977 353.33 530.638H352.965C352.965 531.884 352.542 532.83 351.708 533.501L351.937 533.786ZM348.105 535.278C349.738 534.995 351.019 534.502 351.935 533.788L351.71 533.5C350.859 534.164 349.641 534.641 348.042 534.918L348.105 535.278ZM373.974 520.296V534.839H374.34V520.296H373.974ZM366.077 520.479H374.157V520.113H366.077V520.479ZM366.26 540.98V520.296H365.895V540.98H366.26ZM392.999 540.797H366.077V541.163H392.999V540.797ZM392.816 534.839V540.98H393.182V534.839H392.816ZM374.157 535.022H392.999V534.657H374.157V535.022ZM397.05 520.479H405.13V520.113H397.05V520.479ZM397.233 540.98V520.296H396.868V540.98H397.233ZM405.13 540.797H397.05V541.163H405.13V540.797ZM404.947 520.296V540.98H405.313V520.296H404.947ZM429.366 541.444C424.678 541.444 420.915 541.035 418.073 540.223L417.972 540.574C420.861 541.399 424.661 541.809 429.366 541.809V541.444ZM440.66 540.223C437.817 541.035 434.055 541.444 429.366 541.444V541.809C434.072 541.809 437.872 541.399 440.76 540.574L440.66 540.223ZM446.805 536.6C445.544 538.176 443.504 539.389 440.659 540.223L440.762 540.574C443.648 539.727 445.766 538.484 447.09 536.828L446.805 536.6ZM448.736 530.638C448.736 533.016 448.09 534.999 446.805 536.6L447.09 536.828C448.434 535.154 449.102 533.086 449.102 530.638H448.736ZM446.806 524.71C448.09 526.288 448.736 528.26 448.736 530.638H449.102C449.102 528.19 448.434 526.133 447.09 524.479L446.806 524.71ZM440.66 521.086C443.504 521.898 445.543 523.111 446.804 524.708L447.091 524.481C445.766 522.803 443.648 521.559 440.76 520.734L440.66 521.086ZM429.366 519.833C434.055 519.833 437.817 520.252 440.659 521.086L440.762 520.735C437.873 519.888 434.072 519.467 429.366 519.467V519.833ZM418.074 521.086C420.916 520.252 424.678 519.833 429.366 519.833V519.467C424.661 519.467 420.86 519.888 417.971 520.735L418.074 521.086ZM411.895 524.709C413.178 523.111 415.229 521.898 418.073 521.086L417.972 520.734C415.085 521.559 412.956 522.803 411.61 524.48L411.895 524.709ZM409.996 530.638C409.996 528.259 410.633 526.287 411.895 524.709L411.61 524.48C410.287 526.134 409.631 528.191 409.631 530.638H409.996ZM411.896 536.601C410.633 535 409.996 533.017 409.996 530.638H409.631C409.631 533.086 410.287 535.153 411.609 536.827L411.896 536.601ZM418.074 540.223C415.229 539.389 413.177 538.176 411.895 536.599L411.611 536.829C412.957 538.484 415.085 539.727 417.971 540.574L418.074 540.223ZM429.366 535.669C431.592 535.669 433.52 535.539 435.148 535.279L435.09 534.918C433.487 535.174 431.579 535.303 429.366 535.303V535.669ZM423.489 535.279C425.181 535.539 427.141 535.669 429.366 535.669V535.303C427.154 535.303 425.214 535.174 423.544 534.917L423.489 535.279ZM419.499 533.792C420.477 534.503 421.811 534.995 423.486 535.278L423.547 534.918C421.905 534.64 420.631 534.163 419.714 533.496L419.499 533.792ZM418.034 530.638C418.034 531.981 418.518 533.039 419.495 533.789L419.717 533.499C418.841 532.826 418.399 531.881 418.399 530.638H418.034ZM419.497 527.518C418.518 528.247 418.034 529.295 418.034 530.638H418.399C418.399 529.395 418.841 528.462 419.715 527.811L419.497 527.518ZM423.489 526.03C421.812 526.291 420.476 526.784 419.496 527.518L419.716 527.811C420.632 527.124 421.904 526.647 423.545 526.391L423.489 526.03ZM429.366 525.607C427.14 525.607 425.18 525.748 423.487 526.03L423.547 526.391C425.215 526.113 427.154 525.973 429.366 525.973V525.607ZM435.15 526.03C433.521 525.748 431.593 525.607 429.366 525.607V525.973C431.579 525.973 433.485 526.113 435.088 526.39L435.15 526.03ZM438.983 527.522C438.066 526.784 436.782 526.291 435.148 526.03L435.09 526.391C436.688 526.647 437.903 527.123 438.753 527.807L438.983 527.522ZM440.376 530.638C440.376 529.299 439.915 528.25 438.981 527.521L438.756 527.809C439.587 528.458 440.01 529.392 440.01 530.638H440.376ZM438.983 533.786C439.915 533.035 440.376 531.977 440.376 530.638H440.01C440.01 531.884 439.587 532.83 438.753 533.501L438.983 533.786ZM435.15 535.278C436.783 534.995 438.065 534.502 438.981 533.788L438.756 533.5C437.904 534.164 436.687 534.641 435.088 534.918L435.15 535.278Z" fill="white" mask="url(#path-1-outside-1_4_84)"/>
<g filter="url(#filter0_dddddd_4_84)">
<path fill-rule="evenodd" clip-rule="evenodd" d="M185.652 514.194H213.126V520.334H200.361V534.877H192.281V520.334H179.515V520.072C181.47 518.106 183.518 516.144 185.652 514.194ZM167.511 533.635V534.877H175.591V530.45C175.591 529.502 175.311 528.78 174.751 528.284C174.329 527.879 173.642 527.574 172.692 527.367C170.848 529.47 169.119 531.563 167.511 533.635ZM173.801 526.115C174.482 525.357 175.177 524.597 175.887 523.837C175.826 523.978 175.76 524.114 175.688 524.245C175.257 525.02 174.664 525.624 173.91 526.055C173.874 526.075 173.838 526.095 173.801 526.115ZM248.923 520.334V514.194H216.346V534.877H224.425V528.575H244.463V523.081H224.425V520.334H248.923Z" fill="#FAA2A2"/>
</g>
<mask id="path-4-inside-2_4_84" fill="white">
<path fill-rule="evenodd" clip-rule="evenodd" d="M255.888 531.048C254.32 532.726 252.682 534.407 250.978 536.084H247.852V532.626C247.852 531.979 247.722 531.494 247.464 531.171C247.227 530.827 246.688 530.59 245.848 530.46C245.029 530.331 243.758 530.266 242.034 530.266H229.398V536.084H221.318V515.4H246.3C248.261 515.4 250.017 515.626 251.568 516.078C253.141 516.509 254.38 517.242 255.285 518.276C256.211 519.31 256.675 520.722 256.675 522.51C256.675 523.695 256.459 524.675 256.028 525.451C255.597 526.226 255.005 526.83 254.251 527.261C253.497 527.692 252.635 528.004 251.665 528.198C251.48 528.235 251.293 528.269 251.104 528.301C251.497 528.337 251.856 528.378 252.182 528.424C253.583 528.618 254.552 528.974 255.091 529.491C255.525 529.874 255.79 530.393 255.888 531.048ZM268.531 515.4C267.162 517.418 265.664 519.469 264.045 521.54H259.856V515.4H268.531ZM174.454 526.549C173.59 527.498 172.75 528.447 171.932 529.393C172.802 528.925 173.5 528.268 174.026 527.422C174.191 527.157 174.334 526.866 174.454 526.549ZM178.572 522.187C178.196 523.256 178.009 524.441 178.009 525.742C178.009 528.155 178.655 530.18 179.948 531.818C181.262 533.434 183.352 534.662 186.218 535.502C189.083 536.321 192.865 536.73 197.561 536.73C202.258 536.73 206.04 536.321 208.905 535.502C211.771 534.662 213.85 533.434 215.143 531.818C216.457 530.18 217.114 528.155 217.114 525.742C217.114 523.329 216.457 521.314 215.143 519.698C213.85 518.061 211.771 516.833 208.905 516.014C206.04 515.174 202.258 514.753 197.561 514.753C192.865 514.753 189.083 515.174 186.218 516.014C185.487 516.223 184.806 516.458 184.176 516.72C182.231 518.536 180.361 520.361 178.572 522.187ZM203.314 530.202C201.698 530.46 199.781 530.59 197.561 530.59C195.342 530.59 193.392 530.46 191.712 530.202C190.053 529.922 188.749 529.437 187.801 528.747C186.875 528.036 186.412 527.034 186.412 525.742C186.412 524.449 186.875 523.458 187.801 522.768C188.749 522.057 190.053 521.573 191.712 521.314C193.392 521.034 195.342 520.894 197.561 520.894C199.781 520.894 201.698 521.034 203.314 521.314C204.93 521.573 206.18 522.057 207.063 522.768C207.947 523.458 208.388 524.449 208.388 525.742C208.388 527.034 207.947 528.036 207.063 528.747C206.18 529.437 204.93 529.922 203.314 530.202ZM246.3 524.869H229.398V521.863H246.3C246.947 521.863 247.485 521.971 247.916 522.187C248.369 522.381 248.595 522.758 248.595 523.318C248.595 523.921 248.369 524.33 247.916 524.546C247.485 524.761 246.947 524.869 246.3 524.869Z"/>
</mask>
<path d="M255.888 531.048L256.022 531.172L256.082 531.108L256.069 531.02L255.888 531.048ZM250.978 536.084V536.266H251.053L251.106 536.214L250.978 536.084ZM247.852 536.084H247.669V536.266H247.852V536.084ZM247.464 531.171L247.313 531.275L247.321 531.285L247.464 531.171ZM245.848 530.46L245.819 530.641L245.82 530.641L245.848 530.46ZM229.398 530.266V530.084H229.215V530.266H229.398ZM229.398 536.084V536.266H229.581V536.084H229.398ZM221.318 536.084H221.135V536.266H221.318V536.084ZM221.318 515.4V515.217H221.135V515.4H221.318ZM251.568 516.078L251.517 516.254L251.52 516.255L251.568 516.078ZM255.285 518.276L255.147 518.396L255.149 518.398L255.285 518.276ZM256.028 525.451L255.869 525.362V525.362L256.028 525.451ZM254.251 527.261L254.342 527.419L254.251 527.261ZM251.665 528.198L251.629 528.019L251.665 528.198ZM251.104 528.301L251.074 528.121L251.087 528.483L251.104 528.301ZM252.182 528.424L252.157 528.605L252.157 528.605L252.182 528.424ZM255.091 529.491L254.964 529.623L254.97 529.628L255.091 529.491ZM268.531 515.4L268.683 515.502L268.876 515.217H268.531V515.4ZM264.045 521.54V521.723H264.134L264.189 521.653L264.045 521.54ZM259.856 521.54H259.673V521.723H259.856V521.54ZM259.856 515.4V515.217H259.673V515.4H259.856ZM171.932 529.393L171.794 529.274L172.019 529.554L171.932 529.393ZM174.454 526.549L174.625 526.613L174.319 526.426L174.454 526.549ZM174.026 527.422L174.181 527.519L174.026 527.422ZM178.572 522.187L178.441 522.06L178.413 522.089L178.399 522.127L178.572 522.187ZM179.948 531.818L179.804 531.931L179.806 531.933L179.948 531.818ZM186.218 535.502L186.166 535.677L186.167 535.678L186.218 535.502ZM208.905 535.502L208.956 535.678L208.957 535.677L208.905 535.502ZM215.143 531.818L215 531.703L215 531.703L215.143 531.818ZM215.143 519.698L214.999 519.811L215.001 519.813L215.143 519.698ZM208.905 516.014L208.854 516.189L208.855 516.19L208.905 516.014ZM186.218 516.014L186.268 516.19L186.269 516.189L186.218 516.014ZM184.176 516.72L184.106 516.551L184.076 516.564L184.052 516.587L184.176 516.72ZM203.314 530.202L203.343 530.382L203.345 530.382L203.314 530.202ZM191.712 530.202L191.681 530.382L191.684 530.382L191.712 530.202ZM187.801 528.747L187.69 528.892L187.694 528.895L187.801 528.747ZM187.801 522.768L187.91 522.915L187.911 522.915L187.801 522.768ZM191.712 521.314L191.74 521.495L191.742 521.494L191.712 521.314ZM203.314 521.314L203.283 521.494L203.285 521.495L203.314 521.314ZM207.063 522.768L206.949 522.911L206.951 522.912L207.063 522.768ZM207.063 528.747L207.176 528.891L207.178 528.89L207.063 528.747ZM229.398 524.869H229.215V525.052H229.398V524.869ZM229.398 521.863V521.681H229.215V521.863H229.398ZM247.916 522.187L247.834 522.35L247.844 522.355L247.916 522.187ZM247.916 524.546L247.838 524.381L247.835 524.382L247.916 524.546ZM255.755 530.923C254.189 532.599 252.552 534.278 250.85 535.953L251.106 536.214C252.812 534.535 254.452 532.853 256.022 531.172L255.755 530.923ZM250.978 535.901H247.852V536.266H250.978V535.901ZM248.035 536.084V532.626H247.669V536.084H248.035ZM248.035 532.626C248.035 531.96 247.902 531.426 247.607 531.057L247.321 531.285C247.543 531.562 247.669 531.999 247.669 532.626H248.035ZM247.615 531.068C247.331 530.655 246.721 530.41 245.876 530.28L245.82 530.641C246.655 530.769 247.123 530.998 247.313 531.275L247.615 531.068ZM245.876 530.28C245.043 530.148 243.76 530.084 242.034 530.084V530.449C243.756 530.449 245.016 530.514 245.819 530.641L245.876 530.28ZM242.034 530.084H229.398V530.449H242.034V530.084ZM229.215 530.266V536.084H229.581V530.266H229.215ZM229.398 535.901H221.318V536.266H229.398V535.901ZM221.501 536.084V515.4H221.135V536.084H221.501ZM221.318 515.583H246.3V515.217H221.318V515.583ZM246.3 515.583C248.247 515.583 249.986 515.807 251.517 516.254L251.62 515.903C250.049 515.445 248.275 515.217 246.3 515.217V515.583ZM251.52 516.255C253.065 516.678 254.27 517.394 255.147 518.396L255.423 518.156C254.49 517.09 253.218 516.341 251.617 515.902L251.52 516.255ZM255.149 518.398C256.037 519.39 256.492 520.753 256.492 522.51H256.857C256.857 520.69 256.386 519.231 255.421 518.154L255.149 518.398ZM256.492 522.51C256.492 523.674 256.28 524.621 255.869 525.362L256.188 525.54C256.638 524.729 256.857 523.716 256.857 522.51H256.492ZM255.869 525.362C255.453 526.109 254.885 526.688 254.16 527.102L254.342 527.419C255.125 526.972 255.741 526.344 256.188 525.54L255.869 525.362ZM254.16 527.102C253.425 527.522 252.582 527.828 251.629 528.019L251.701 528.377C252.687 528.18 253.568 527.861 254.342 527.419L254.16 527.102ZM251.629 528.019C251.446 528.055 251.261 528.089 251.074 528.121L251.134 528.481C251.325 528.449 251.514 528.415 251.701 528.377L251.629 528.019ZM251.087 528.483C251.477 528.519 251.834 528.56 252.157 528.605L252.208 528.243C251.878 528.197 251.516 528.155 251.121 528.119L251.087 528.483ZM252.157 528.605C253.549 528.798 254.469 529.147 254.965 529.623L255.218 529.359C254.636 528.8 253.617 528.438 252.207 528.243L252.157 528.605ZM254.97 529.628C255.367 529.979 255.615 530.456 255.708 531.075L256.069 531.02C255.966 530.33 255.682 529.77 255.212 529.354L254.97 529.628ZM268.38 515.297C267.013 517.312 265.518 519.359 263.901 521.428L264.189 521.653C265.81 519.578 267.31 517.525 268.683 515.502L268.38 515.297ZM264.045 521.358H259.856V521.723H264.045V521.358ZM260.038 521.54V515.4H259.673V521.54H260.038ZM259.856 515.583H268.531V515.217H259.856V515.583ZM172.071 529.513C172.887 528.568 173.727 527.62 174.589 526.672L174.319 526.426C173.454 527.377 172.612 528.326 171.794 529.274L172.071 529.513ZM173.871 527.326C173.362 528.144 172.687 528.779 171.846 529.232L172.019 529.554C172.917 529.07 173.639 528.391 174.181 527.519L173.871 527.326ZM174.283 526.484C174.167 526.791 174.029 527.071 173.871 527.326L174.181 527.519C174.353 527.243 174.501 526.941 174.625 526.613L174.283 526.484ZM178.192 525.742C178.192 524.459 178.377 523.295 178.744 522.248L178.399 522.127C178.016 523.218 177.826 524.424 177.826 525.742H178.192ZM180.091 531.704C178.828 530.104 178.192 528.12 178.192 525.742H177.826C177.826 528.189 178.482 530.256 179.804 531.931L180.091 531.704ZM186.269 535.327C183.424 534.492 181.372 533.28 180.09 531.702L179.806 531.933C181.152 533.588 183.28 534.831 186.166 535.677L186.269 535.327ZM197.561 536.547C192.873 536.547 189.111 536.138 186.268 535.326L186.167 535.678C189.056 536.503 192.856 536.913 197.561 536.913V536.547ZM208.855 535.326C206.012 536.138 202.25 536.547 197.561 536.547V536.913C202.267 536.913 206.067 536.503 208.956 535.678L208.855 535.326ZM215 531.703C213.739 533.28 211.699 534.492 208.854 535.327L208.957 535.677C211.843 534.831 213.961 533.587 215.286 531.932L215 531.703ZM216.931 525.742C216.931 528.12 216.285 530.103 215 531.703L215.285 531.932C216.629 530.257 217.297 528.19 217.297 525.742H216.931ZM215.001 519.813C216.285 521.392 216.931 523.364 216.931 525.742H217.297C217.297 523.294 216.629 521.236 215.285 519.583L215.001 519.813ZM208.855 516.19C211.699 517.002 213.739 518.214 214.999 519.811L215.286 519.585C213.962 517.907 211.843 516.663 208.956 515.838L208.855 516.19ZM197.561 514.936C202.25 514.936 206.012 515.356 208.854 516.189L208.957 515.838C206.068 514.991 202.267 514.571 197.561 514.571V514.936ZM186.269 516.189C189.111 515.356 192.873 514.936 197.561 514.936V514.571C192.856 514.571 189.055 514.991 186.166 515.838L186.269 516.189ZM184.246 516.889C184.869 516.63 185.543 516.397 186.268 516.19L186.167 515.838C185.43 516.049 184.743 516.286 184.106 516.551L184.246 516.889ZM178.703 522.315C180.49 520.491 182.357 518.668 184.301 516.854L184.052 516.587C182.104 518.404 180.232 520.231 178.441 522.06L178.703 522.315ZM197.561 530.772C199.787 530.772 201.715 530.643 203.343 530.382L203.285 530.021C201.682 530.278 199.774 530.407 197.561 530.407V530.772ZM191.684 530.382C193.376 530.643 195.336 530.772 197.561 530.772V530.407C195.349 530.407 193.409 530.278 191.74 530.021L191.684 530.382ZM187.694 528.895C188.672 529.607 190.006 530.099 191.681 530.382L191.742 530.021C190.1 529.744 188.826 529.267 187.909 528.6L187.694 528.895ZM186.229 525.742C186.229 527.084 186.713 528.143 187.69 528.892L187.913 528.602C187.036 527.93 186.594 526.985 186.594 525.742H186.229ZM187.692 522.622C186.713 523.35 186.229 524.399 186.229 525.742H186.594C186.594 524.499 187.036 523.566 187.91 522.915L187.692 522.622ZM191.684 521.133C190.007 521.395 188.671 521.887 187.692 522.622L187.911 522.915C188.827 522.228 190.099 521.75 191.74 521.495L191.684 521.133ZM197.561 520.711C195.335 520.711 193.375 520.852 191.682 521.134L191.742 521.494C193.41 521.216 195.349 521.077 197.561 521.077V520.711ZM203.345 521.134C201.716 520.852 199.788 520.711 197.561 520.711V521.077C199.774 521.077 201.68 521.216 203.283 521.494L203.345 521.134ZM207.178 522.626C206.261 521.888 204.977 521.395 203.343 521.134L203.285 521.495C204.883 521.75 206.099 522.227 206.949 522.911L207.178 522.626ZM208.571 525.742C208.571 524.402 208.111 523.354 207.176 522.624L206.951 522.912C207.782 523.562 208.205 524.495 208.205 525.742H208.571ZM207.178 528.89C208.111 528.139 208.571 527.081 208.571 525.742H208.205C208.205 526.988 207.782 527.934 206.949 528.605L207.178 528.89ZM203.345 530.382C204.978 530.099 206.26 529.606 207.176 528.891L206.951 528.603C206.099 529.268 204.882 529.744 203.283 530.022L203.345 530.382ZM229.398 525.052H246.3V524.686H229.398V525.052ZM229.215 521.863V524.869H229.581V521.863H229.215ZM246.3 521.681H229.398V522.046H246.3V521.681ZM247.998 522.023C247.535 521.791 246.966 521.681 246.3 521.681V522.046C246.928 522.046 247.436 522.151 247.835 522.35L247.998 522.023ZM248.778 523.318C248.778 523.014 248.716 522.745 248.582 522.521C248.447 522.295 248.246 522.129 247.988 522.019L247.844 522.355C248.04 522.438 248.178 522.557 248.269 522.709C248.361 522.862 248.412 523.062 248.412 523.318H248.778ZM247.995 524.711C248.253 524.588 248.452 524.406 248.585 524.166C248.717 523.927 248.778 523.642 248.778 523.318H248.412C248.412 523.597 248.36 523.818 248.265 523.989C248.172 524.158 248.032 524.288 247.838 524.381L247.995 524.711ZM246.3 525.052C246.966 525.052 247.535 524.941 247.998 524.709L247.835 524.382C247.436 524.582 246.928 524.686 246.3 524.686V525.052Z" fill="#E37575" mask="url(#path-4-inside-2_4_84)"/>
<path fill-rule="evenodd" clip-rule="evenodd" d="M253.427 532.466C254.561 533.203 255.95 533.813 257.595 534.296C260.46 535.115 264.241 535.524 268.938 535.524C273.635 535.524 277.417 535.115 280.282 534.296C283.148 533.455 285.227 532.227 286.52 530.611C287.834 528.974 288.491 526.949 288.491 524.536C288.491 522.122 287.834 520.108 286.52 518.492C285.227 516.855 283.148 515.626 280.282 514.808C277.432 513.972 273.675 513.552 269.012 513.547C267.615 515.641 266.079 517.77 264.411 519.923C265.77 519.766 267.279 519.688 268.938 519.688C271.158 519.688 273.075 519.828 274.691 520.108C276.307 520.366 277.557 520.851 278.44 521.562C279.324 522.252 279.765 523.243 279.765 524.536C279.765 525.828 279.324 526.83 278.44 527.541C277.557 528.231 276.307 528.715 274.691 528.996C273.075 529.254 271.158 529.383 268.938 529.383C266.719 529.383 264.769 529.254 263.089 528.996C261.43 528.715 260.126 528.231 259.178 527.541C258.946 527.363 258.742 527.166 258.568 526.95C256.939 528.785 255.224 530.626 253.427 532.466ZM172.288 527.829C170.229 530.198 168.316 532.553 166.56 534.878H165.715V531.419C165.715 530.773 165.586 530.288 165.328 529.965C165.091 529.62 164.552 529.383 163.712 529.254C162.893 529.125 161.622 529.06 159.898 529.06H147.261V534.878H139.182V514.194H164.164C166.125 514.194 167.881 514.42 169.432 514.872C171.005 515.303 172.244 516.036 173.149 517.07C174.075 518.104 174.538 519.515 174.538 521.304C174.538 522.489 174.323 523.469 173.892 524.245C173.461 525.02 172.869 525.624 172.114 526.055C171.36 526.485 170.499 526.798 169.529 526.992C169.343 527.029 169.156 527.063 168.968 527.095C169.36 527.131 169.72 527.172 170.046 527.218C170.989 527.349 171.736 527.552 172.288 527.829ZM185.652 514.194H177.719V520.334H179.255C181.288 518.281 183.423 516.23 185.652 514.194ZM66.8106 529.545V534.878H58.731V514.194H81.1601C82.776 514.194 84.2842 514.312 85.6847 514.549C87.1067 514.765 88.3456 515.163 89.4013 515.745C90.4571 516.327 91.2866 517.145 91.8898 518.201C92.4931 519.257 92.7948 520.614 92.7948 522.273C92.7948 523.932 92.4931 525.247 91.8898 526.216C91.2866 527.186 90.4571 527.907 89.4013 528.381C88.3456 528.855 87.1067 529.168 85.6847 529.319C84.2842 529.47 82.776 529.545 81.1601 529.545H66.8106ZM66.8106 523.889H82.4205C83.0669 523.889 83.6055 523.792 84.0364 523.598C84.4889 523.383 84.7151 522.941 84.7151 522.273C84.7151 521.584 84.4889 521.142 84.0364 520.948C83.6055 520.754 83.0669 520.657 82.4205 520.657H66.8106V523.889ZM104.081 534.296C106.947 535.115 110.728 535.524 115.425 535.524C120.122 535.524 123.903 535.115 126.769 534.296C129.635 533.455 131.714 532.227 133.006 530.611C134.321 528.974 134.978 526.949 134.978 524.536C134.978 522.122 134.321 520.108 133.006 518.492C131.714 516.855 129.635 515.626 126.769 514.808C123.903 513.967 120.122 513.547 115.425 513.547C110.728 513.547 106.947 513.967 104.081 514.808C101.216 515.626 99.1258 516.855 97.8115 518.492C96.5187 520.108 95.8723 522.122 95.8723 524.536C95.8723 526.949 96.5187 528.974 97.8115 530.611C99.1258 532.227 101.216 533.455 104.081 534.296ZM121.178 528.996C119.562 529.254 117.644 529.383 115.425 529.383C113.206 529.383 111.256 529.254 109.575 528.996C107.916 528.715 106.613 528.231 105.665 527.541C104.738 526.83 104.275 525.828 104.275 524.536C104.275 523.243 104.738 522.252 105.665 521.562C106.613 520.851 107.916 520.366 109.575 520.108C111.256 519.828 113.206 519.688 115.425 519.688C117.644 519.688 119.562 519.828 121.178 520.108C122.794 520.366 124.043 520.851 124.927 521.562C125.81 522.252 126.252 523.243 126.252 524.536C126.252 525.828 125.81 526.83 124.927 527.541C124.043 528.231 122.794 528.715 121.178 528.996ZM164.164 523.663H147.261V520.657H164.164C164.81 520.657 165.349 520.765 165.78 520.981C166.232 521.174 166.459 521.551 166.459 522.112C166.459 522.715 166.232 523.124 165.78 523.34C165.349 523.555 164.81 523.663 164.164 523.663ZM300.775 528.737V514.194H292.695V534.878H319.617V528.737H300.775ZM331.748 514.194H323.668V534.878H331.748V514.194ZM344.64 534.296C347.506 535.115 351.287 535.524 355.984 535.524C360.681 535.524 364.462 535.115 367.328 534.296C370.193 533.455 372.273 532.227 373.565 530.611C374.88 528.974 375.537 526.949 375.537 524.536C375.537 522.122 374.88 520.108 373.565 518.492C372.273 516.855 370.193 515.626 367.328 514.808C364.462 513.967 360.681 513.547 355.984 513.547C351.287 513.547 347.506 513.967 344.64 514.808C341.775 515.626 339.685 516.855 338.37 518.492C337.078 520.108 336.431 522.122 336.431 524.536C336.431 526.949 337.078 528.974 338.37 530.611C339.685 532.227 341.775 533.455 344.64 534.296ZM361.737 528.996C360.121 529.254 358.203 529.383 355.984 529.383C353.765 529.383 351.815 529.254 350.134 528.996C348.475 528.715 347.172 528.231 346.224 527.541C345.297 526.83 344.834 525.828 344.834 524.536C344.834 523.243 345.297 522.252 346.224 521.562C347.172 520.851 348.475 520.366 350.134 520.108C351.815 519.828 353.765 519.688 355.984 519.688C358.203 519.688 360.121 519.828 361.737 520.108C363.353 520.366 364.602 520.851 365.486 521.562C366.369 522.252 366.811 523.243 366.811 524.536C366.811 525.828 366.369 526.83 365.486 527.541C364.602 528.231 363.353 528.715 361.737 528.996Z" fill="white"/>
<g filter="url(#filter1_dddddd_4_84)">
<path fill-rule="evenodd" clip-rule="evenodd" d="M232.549 548.364C216.078 561.062 199.258 569.939 185.433 574.068C178.514 576.135 172.446 576.981 167.596 576.591C162.747 576.201 159.331 574.602 157.324 571.998C155.316 569.394 154.638 565.684 155.495 560.895C156.352 556.105 158.715 550.453 162.474 544.287C167.306 536.362 174.353 527.738 183.151 519.213L182.244 517.388C159.214 539.547 147.655 562.639 155.785 573.184C165.616 585.937 200.515 575.513 233.735 549.903C266.955 524.293 285.915 493.194 276.084 480.442C268.607 470.743 246.63 474.45 221.919 488.048C222.037 488.032 222.153 488.016 222.268 488L224.005 489.124C231.948 484.838 239.562 481.611 246.436 479.558C253.355 477.492 259.423 476.645 264.273 477.035C269.122 477.425 272.538 479.024 274.545 481.628C276.553 484.233 277.23 487.942 276.374 492.732C275.517 497.521 273.154 503.174 269.395 509.34C261.884 521.659 249.02 535.667 232.549 548.364Z" fill="url(#paint0_linear_4_84)"/>
</g>
<g style="mix-blend-mode:overlay">
<circle cx="274.229" cy="479.938" r="3.64292" fill="#FFF9F9"/>
</g>
<circle cx="161.785" cy="574.897" r="5.82867" fill="#E38652"/>
<defs>
<filter id="filter0_dddddd_4_84" x="-188.813" y="157.87" width="794.059" height="733.332" filterUnits="userSpaceOnUse" color-interpolation-filters="sRGB">
<feFlood flood-opacity="0" result="BackgroundImageFix"/>
<feColorMatrix in="SourceAlpha" type="matrix" values="0 0 0 0 0 0 0 0 0 0 0 0 0 0 0 0 0 0 127 0" result="hardAlpha"/>
<feOffset/>
<feGaussianBlur stdDeviation="4.24195"/>
<feColorMatrix type="matrix" values="0 0 0 0 0.87451 0 0 0 0 0.403922 0 0 0 0 0.403922 0 0 0 1 0"/>
<feBlend mode="normal" in2="BackgroundImageFix" result="effect1_dropShadow_4_84"/>
<feColorMatrix in="SourceAlpha" type="matrix" values="0 0 0 0 0 0 0 0 0 0 0 0 0 0 0 0 0 0 127 0" result="hardAlpha"/>
<feOffset/>
<feGaussianBlur stdDeviation="8.4839"/>
<feColorMatrix type="matrix" values="0 0 0 0 0.87451 0 0 0 0 0.403922 0 0 0 0 0.403922 0 0 0 1 0"/>
<feBlend mode="normal" in2="effect1_dropShadow_4_84" result="effect2_dropShadow_4_84"/>
<feColorMatrix in="SourceAlpha" type="matrix" values="0 0 0 0 0 0 0 0 0 0 0 0 0 0 0 0 0 0 127 0" result="hardAlpha"/>
<feOffset/>
<feGaussianBlur stdDeviation="29.6937"/>
<feColorMatrix type="matrix" values="0 0 0 0 0.87451 0 0 0 0 0.403922 0 0 0 0 0.403922 0 0 0 1 0"/>
<feBlend mode="normal" in2="effect2_dropShadow_4_84" result="effect3_dropShadow_4_84"/>
<feColorMatrix in="SourceAlpha" type="matrix" values="0 0 0 0 0 0 0 0 0 0 0 0 0 0 0 0 0 0 127 0" result="hardAlpha"/>
<feOffset/>
<feGaussianBlur stdDeviation="59.3873"/>
<feColorMatrix type="matrix" values="0 0 0 0 0.87451 0 0 0 0 0.403922 0 0 0 0 0.403922 0 0 0 1 0"/>
<feBlend mode="normal" in2="effect3_dropShadow_4_84" result="effect4_dropShadow_4_84"/>
<feColorMatrix in="SourceAlpha" type="matrix" values="0 0 0 0 0 0 0 0 0 0 0 0 0 0 0 0 0 0 127 0" result="hardAlpha"/>
<feOffset/>
<feGaussianBlur stdDeviation="101.807"/>
<feColorMatrix type="matrix" values="0 0 0 0 0.87451 0 0 0 0 0.403922 0 0 0 0 0.403922 0 0 0 1 0"/>
<feBlend mode="normal" in2="effect4_dropShadow_4_84" result="effect5_dropShadow_4_84"/>
<feColorMatrix in="SourceAlpha" type="matrix" values="0 0 0 0 0 0 0 0 0 0 0 0 0 0 0 0 0 0 127 0" result="hardAlpha"/>
<feOffset/>
<feGaussianBlur stdDeviation="178.162"/>
<feColorMatrix type="matrix" values="0 0 0 0 0.87451 0 0 0 0 0.403922 0 0 0 0 0.403922 0 0 0 1 0"/>
<feBlend mode="normal" in2="effect5_dropShadow_4_84" result="effect6_dropShadow_4_84"/>
<feBlend mode="normal" in="SourceGraphic" in2="effect6_dropShadow_4_84" result="shape"/>
</filter>
<filter id="filter1_dddddd_4_84" x="-321.161" y="0.649689" width="1074.19" height="1052.33" filterUnits="userSpaceOnUse" color-interpolation-filters="sRGB">
<feFlood flood-opacity="0" result="BackgroundImageFix"/>
<feColorMatrix in="SourceAlpha" type="matrix" values="0 0 0 0 0 0 0 0 0 0 0 0 0 0 0 0 0 0 127 0" result="hardAlpha"/>
<feOffset/>
<feGaussianBlur stdDeviation="5.64703"/>
<feColorMatrix type="matrix" values="0 0 0 0 0.862745 0 0 0 0 0.341176 0 0 0 0 0.341176 0 0 0 1 0"/>
<feBlend mode="normal" in2="BackgroundImageFix" result="effect1_dropShadow_4_84"/>
<feColorMatrix in="SourceAlpha" type="matrix" values="0 0 0 0 0 0 0 0 0 0 0 0 0 0 0 0 0 0 127 0" result="hardAlpha"/>
<feOffset/>
<feGaussianBlur stdDeviation="11.2941"/>
<feColorMatrix type="matrix" values="0 0 0 0 0.862745 0 0 0 0 0.341176 0 0 0 0 0.341176 0 0 0 1 0"/>
<feBlend mode="normal" in2="effect1_dropShadow_4_84" result="effect2_dropShadow_4_84"/>
<feColorMatrix in="SourceAlpha" type="matrix" values="0 0 0 0 0 0 0 0 0 0 0 0 0 0 0 0 0 0 127 0" result="hardAlpha"/>
<feOffset/>
<feGaussianBlur stdDeviation="39.5292"/>
<feColorMatrix type="matrix" values="0 0 0 0 0.862745 0 0 0 0 0.341176 0 0 0 0 0.341176 0 0 0 1 0"/>
<feBlend mode="normal" in2="effect2_dropShadow_4_84" result="effect3_dropShadow_4_84"/>
<feColorMatrix in="SourceAlpha" type="matrix" values="0 0 0 0 0 0 0 0 0 0 0 0 0 0 0 0 0 0 127 0" result="hardAlpha"/>
<feOffset/>
<feGaussianBlur stdDeviation="79.0584"/>
<feColorMatrix type="matrix" values="0 0 0 0 0.862745 0 0 0 0 0.341176 0 0 0 0 0.341176 0 0 0 1 0"/>
<feBlend mode="normal" in2="effect3_dropShadow_4_84" result="effect4_dropShadow_4_84"/>
<feColorMatrix in="SourceAlpha" type="matrix" values="0 0 0 0 0 0 0 0 0 0 0 0 0 0 0 0 0 0 127 0" result="hardAlpha"/>
<feOffset/>
<feGaussianBlur stdDeviation="135.529"/>
<feColorMatrix type="matrix" values="0 0 0 0 0.862745 0 0 0 0 0.341176 0 0 0 0 0.341176 0 0 0 1 0"/>
<feBlend mode="normal" in2="effect4_dropShadow_4_84" result="effect5_dropShadow_4_84"/>
<feColorMatrix in="SourceAlpha" type="matrix" values="0 0 0 0 0 0 0 0 0 0 0 0 0 0 0 0 0 0 127 0" result="hardAlpha"/>
<feOffset/>
<feGaussianBlur stdDeviation="237.175"/>
<feColorMatrix type="matrix" values="0 0 0 0 0.862745 0 0 0 0 0.341176 0 0 0 0 0.341176 0 0 0 1 0"/>
<feBlend mode="normal" in2="effect5_dropShadow_4_84" result="effect6_dropShadow_4_84"/>
<feBlend mode="normal" in="SourceGraphic" in2="effect6_dropShadow_4_84" result="shape"/>
</filter>
<linearGradient id="paint0_linear_4_84" x1="215.934" y1="475" x2="215.934" y2="578.626" gradientUnits="userSpaceOnUse">
<stop stop-color="#E3C58B"/>
<stop offset="1" stop-color="#FF7A00" stop-opacity="0.6"/>
</linearGradient>
</defs>
</svg>
